<svg id="Layer_1" data-name="Layer 1" xmlns="http://www.w3.org/2000/svg" viewBox="0 0 99 188.1"><defs><style>.cls-1{fill:#bc9a36;}</style></defs><title>Apostrophe_logo_gold</title><path class="cls-1" d="M19.82,189.05C49.6,159.44,99.5,108.21,99.5,55.38,99.5,17.76,75.36.95,49.6,0.95,22.23,0.95.5,21,.5,49A47.71,47.71,0,0,0,15.14,83.83C23,91.2,33.8,96.22,44.63,96.53c1.76,0.05,3.61,0,5.13.89a6.32,6.32,0,0,1,2.77,4.14c2.37,10.36-2,24.25-4.75,34.12-3.88,13.94-9.38,27.69-17.32,39.84-0.76,1.17-10.28,13.89-10.76,13.41Z" transform="translate(-0.5 -0.95)"/></svg>